<svg width="24" height="14" viewBox="0 0 24 14" fill="none" xmlns="http://www.w3.org/2000/svg">
<path d="M1.91667 14C1.27233 14 0.75 13.4777 0.75 12.8333C0.75 12.189 1.27233 11.6667 1.91667 11.6667H22.0833C22.7277 11.6667 23.25 12.189 23.25 12.8333C23.25 13.4777 22.7277 14 22.0833 14H1.91667ZM1.91667 8.16667C1.27233 8.16667 0.75 7.64433 0.75 7C0.75 6.35567 1.27233 5.83333 1.91667 5.83333H22.0833C22.7277 5.83333 23.25 6.35567 23.25 7C23.25 7.64433 22.7277 8.16667 22.0833 8.16667H1.91667ZM1.91667 2.33333C1.27233 2.33333 0.75 1.811 0.75 1.16667C0.75 0.522334 1.27233 0 1.91667 0H22.0833C22.7277 0 23.25 0.522334 23.25 1.16667C23.25 1.811 22.7277 2.33333 22.0833 2.33333H1.91667Z" fill="black"/>
</svg>
