<svg width="20" height="20" viewBox="0 0 20 20" fill="none" xmlns="http://www.w3.org/2000/svg">
<path d="M0.831804 19.1668L2.07114 14.6128C1.25451 13.2129 0.825475 11.6208 0.828137 10.0002C0.828137 4.93741 4.93205 0.833496 9.9948 0.833496C15.0576 0.833496 19.1615 4.93741 19.1615 10.0002C19.1615 15.0629 15.0576 19.1668 9.9948 19.1668C8.37485 19.1694 6.78341 18.7407 5.38397 17.9247L0.831804 19.1668ZM6.68655 5.69916C6.56818 5.70651 6.45251 5.73769 6.34647 5.79083C6.24703 5.84714 6.15626 5.91754 6.07697 5.99983C5.96697 6.10341 5.90464 6.19325 5.83772 6.28033C5.49893 6.72124 5.3167 7.26246 5.3198 7.8185C5.32164 8.26766 5.43897 8.70491 5.6223 9.11375C5.99722 9.94058 6.61414 10.816 7.42905 11.6272C7.62522 11.8225 7.8168 12.0187 8.02305 12.2011C9.03449 13.0916 10.2398 13.7338 11.5431 14.0766L12.0646 14.1563C12.2342 14.1655 12.4038 14.1527 12.5743 14.1444C12.8413 14.1306 13.102 14.0583 13.3379 13.9327C13.4579 13.8708 13.5751 13.8035 13.689 13.731C13.689 13.731 13.7284 13.7053 13.8036 13.6485C13.9273 13.5568 14.0034 13.4917 14.1061 13.3845C14.1821 13.3057 14.2481 13.2131 14.2986 13.1077C14.3701 12.9582 14.4416 12.6732 14.4709 12.4357C14.4929 12.2542 14.4865 12.1552 14.4837 12.0938C14.4801 11.9957 14.3985 11.894 14.3096 11.8509L13.7761 11.6117C13.7761 11.6117 12.9786 11.2642 12.4918 11.0424C12.4405 11.02 12.3855 11.0073 12.3296 11.0048C12.2668 10.9984 12.2035 11.0054 12.1437 11.0255C12.0839 11.0456 12.0292 11.0782 11.9831 11.1212V11.1194C11.9785 11.1194 11.9171 11.1717 11.2543 11.9747C11.2163 12.0258 11.1639 12.0644 11.1038 12.0856C11.0437 12.1069 10.9787 12.1097 10.917 12.0938C10.8572 12.0779 10.7987 12.0576 10.7419 12.0333C10.6282 11.9857 10.5888 11.9673 10.5109 11.9334L10.5063 11.9316C9.98189 11.7026 9.49634 11.3934 9.06714 11.0149C8.95164 10.9141 8.84439 10.8041 8.73439 10.6977C8.37375 10.3524 8.05946 9.96167 7.79939 9.53541L7.7453 9.44833C7.70646 9.38981 7.67505 9.32669 7.6518 9.26041C7.61697 9.12566 7.70772 9.0175 7.70772 9.0175C7.70772 9.0175 7.93047 8.77366 8.03405 8.64166C8.1203 8.53196 8.20077 8.41783 8.27514 8.29975C8.3833 8.12558 8.41722 7.94683 8.36039 7.80841C8.10372 7.18141 7.83789 6.55716 7.56472 5.9375C7.51064 5.81466 7.35022 5.72666 7.20447 5.70925C7.15497 5.70375 7.10547 5.69825 7.05597 5.69458C6.93287 5.68846 6.80951 5.68969 6.68655 5.69825V5.69916Z" fill="black"/>
</svg>
