<svg width="34" height="34" viewBox="0 0 34 34" fill="none" xmlns="http://www.w3.org/2000/svg">
<path d="M23.3364 20.5061C22.7841 20.5061 22.3364 20.0583 22.3364 19.5061L22.3364 12.6066C22.3364 12.0543 21.8887 11.6066 21.3364 11.6066L14.4369 11.6066C13.8846 11.6066 13.4369 11.1588 13.4369 10.6066C13.4369 10.0543 13.8846 9.60656 14.4369 9.60656L23.3364 9.60656C23.8887 9.60656 24.3364 10.0543 24.3364 10.6066L24.3364 19.5061C24.3364 20.0583 23.8887 20.5061 23.3364 20.5061Z" fill="#2B2D33"/>
<path d="M10.6085 13.435C11.1608 13.435 11.6085 13.8827 11.6085 14.435L11.6085 21.3345C11.6085 21.8868 12.0562 22.3345 12.6085 22.3345L19.508 22.3345C20.0603 22.3345 20.508 22.7822 20.508 23.3345C20.508 23.8868 20.0603 24.3345 19.508 24.3345L10.6085 24.3345C10.0562 24.3345 9.60849 23.8868 9.60849 23.3345L9.60849 14.435C9.60849 13.8827 10.0562 13.435 10.6085 13.435Z" fill="#2B2D33"/>
</svg>
